<svg xmlns="http://www.w3.org/2000/svg" viewBox="0 0 48 48"><g data-name="图层 2"><g data-name="图层 1"><path fill="none" d="M0 0h48v48H0z"/><path d="M21.13 2H3a1 1 0 00-1 1v18.13a1 1 0 001 1h18.13a1 1 0 001-1V3a1 1 0 00-1-1zM18 18H6V6h12zM45 2H26.87a1 1 0 00-1 1v18.13a1 1 0 001 1H45a1 1 0 001-1V3a1 1 0 00-1-1zm-3.07 16H30V6h12zm-20.8 7.89H3a1 1 0 00-1 1V45a1 1 0 001 1h18.13a1 1 0 001-1V26.87a1 1 0 00-1-.96zM18 41.93H6V30h12zm27-16H26.87a1 1 0 00-1 1V45a1 1 0 001 1H45a1 1 0 001-1V26.87a1 1 0 00-1-.96zm-3.11 16H30V30h12z"/></g></g></svg>