<svg id="图层_1" data-name="图层 1" xmlns="http://www.w3.org/2000/svg" viewBox="0 0 188.46 200"><title>设备分布</title><path d="M159.62,130.77c10.25,0,17.94,3.85,24.35,10.26a35,35,0,0,1,10.26,24.35,34.62,34.62,0,1,1-69.23,0c0-3.84,1.28-7.69,1.28-11.53L89.1,132.05l-1.28,1.28c-10.26,9-21.79,14.11-34.61,14.11-25.65,0-47.44-21.8-47.44-47.44S27.56,52.56,53.21,52.56c12.82,0,25.64,5.13,33.33,14.11L87.82,68,125,46.15c0-3.84-1.28-7.69-1.28-11.53a34.62,34.62,0,1,1,34.61,34.61c-10.25,0-18-3.85-24.36-10.26L96.79,80.77a50,50,0,0,1,0,38.46L134,141A35.82,35.82,0,0,1,159.62,130.77Z" transform="translate(-5.77)"/><path d="M172.44,151.28c-3.85-3.84-9-5.13-14.11-5.13s-10.25,2.57-14.1,5.13c-3.85,3.85-5.13,9-5.13,14.1,0,10.26,9,19.24,19.23,19.24s19.23-9,19.23-19.24C178.85,160.26,176.28,155.13,172.44,151.28Z" transform="translate(-5.77)"/><path d="M76.28,76.92c-6.41-5.13-14.1-9-23.07-9a32.05,32.05,0,1,0,0,64.1,30.92,30.92,0,0,0,21.79-9C82.69,116.67,85.26,109,85.26,100S82.69,83.33,76.28,76.92Z" transform="translate(-5.77)"/><path d="M159.62,15.38c-10.26,0-19.24,9-19.24,19.24A24.16,24.16,0,0,0,143,44.87c1.28,1.28,1.28,2.57,2.56,2.57,3.85,3.84,9,5.12,14.11,5.12,10.25,0,19.23-9,19.23-19.23C178.85,24.36,169.87,15.38,159.62,15.38Z" transform="translate(-5.77)"/></svg>