<?xml version="1.0" encoding="utf-8"?>
<!-- Generator: Adobe Illustrator 22.0.1, SVG Export Plug-In . SVG Version: 6.00 Build 0)  -->
<svg version="1.1" id="图层_1" xmlns="http://www.w3.org/2000/svg" xmlns:xlink="http://www.w3.org/1999/xlink" x="0px" y="0px"
	 viewBox="0 0 200.2 200" style="enable-background:new 0 0 200.2 200;" xml:space="preserve">
<path d="M130.1,35.4l-4.7,11.2l31.1-9.9L141.9,7.5L137,19.1c-30.4-13.2-66.8-8.8-93.4,14.3l11.6,13.3
	C76.5,28.2,105.7,24.7,130.1,35.4z M69.9,164.6l4.7-11.2l-31.1,9.9l14.5,29.2l4.9-11.6c30.4,13.2,66.8,8.8,93.4-14.3l-11.6-13.3
	C123.5,171.8,94.3,175.3,69.9,164.6z M35.4,69.7l11.2,4.7l-9.9-31.1L7.5,57.9l11.6,4.9c-13.2,30.4-8.8,66.8,14.3,93.4l13.3-11.6
	C28.2,123.3,24.7,94.2,35.4,69.7z M180.9,136.8c13.2-30.4,8.8-66.8-14.3-93.4L153.2,55c18.6,21.3,22,50.5,11.4,74.9l-11.2-4.7
	l9.9,31.1l29.2-14.5L180.9,136.8z"/>
</svg>
