<?xml version="1.0" standalone="no"?><!DOCTYPE svg PUBLIC "-//W3C//DTD SVG 1.1//EN" "http://www.w3.org/Graphics/SVG/1.1/DTD/svg11.dtd"><svg class="icon" width="48px" height="48.00px" viewBox="0 0 1024 1024" version="1.1" xmlns="http://www.w3.org/2000/svg"><path d="M896 170.666667h-256a170.666667 170.666667 0 0 0-128 58.453333A170.666667 170.666667 0 0 0 384 170.666667H128a42.666667 42.666667 0 0 0-42.666667 42.666666v554.666667a42.666667 42.666667 0 0 0 42.666667 42.666667h238.506667a42.666667 42.666667 0 0 1 29.866666 12.373333l17.92 17.92a42.666667 42.666667 0 0 0 29.866667 12.373333h135.68a42.666667 42.666667 0 0 0 29.866667-12.373333l17.92-17.92a42.666667 42.666667 0 0 1 29.866666-12.373333H896a42.666667 42.666667 0 0 0 42.666667-42.666667V213.333333a42.666667 42.666667 0 0 0-42.666667-42.666666zM469.333333 705.706667A170.666667 170.666667 0 0 0 384 682.666667H170.666667V256h213.333333a85.333333 85.333333 0 0 1 85.333333 85.333333z m384-23.04h-213.333333a170.666667 170.666667 0 0 0-85.333333 23.04V341.333333a85.333333 85.333333 0 0 1 85.333333-85.333333h213.333333z" /></svg>