<?xml version="1.0" standalone="no"?><!DOCTYPE svg PUBLIC "-//W3C//DTD SVG 1.1//EN" "http://www.w3.org/Graphics/SVG/1.1/DTD/svg11.dtd"><svg class="icon" width="48px" height="48.00px" viewBox="0 0 1024 1024" version="1.1" xmlns="http://www.w3.org/2000/svg"><path d="M806.826667 387.84A213.333333 213.333333 0 0 0 597.333333 213.333333H256a213.333333 213.333333 0 0 0-38.826667 422.826667A213.333333 213.333333 0 0 0 426.666667 810.666667h341.333333a213.333333 213.333333 0 0 0 38.826667-422.826667zM128 426.666667a128 128 0 0 1 128-128h341.333333a128 128 0 0 1 0 256H306.346667A128 128 0 0 1 426.666667 469.333333h200.533333a50.773333 50.773333 0 0 0 23.466667-42.666666 52.48 52.48 0 0 0-23.04-42.666667H426.666667a213.333333 213.333333 0 0 0-207.36 164.693333A128 128 0 0 1 128 426.666667z m640 298.666666h-341.333333a128 128 0 0 1-120.32-85.333333H597.333333a213.333333 213.333333 0 0 0 207.36-164.693333A128 128 0 0 1 768 725.333333z" /></svg>