<?xml version="1.0" standalone="no"?><!DOCTYPE svg PUBLIC "-//W3C//DTD SVG 1.1//EN" "http://www.w3.org/Graphics/SVG/1.1/DTD/svg11.dtd"><svg class="icon" width="48px" height="48.00px" viewBox="0 0 1024 1024" version="1.1" xmlns="http://www.w3.org/2000/svg"><path d="M810.666667 526.08c0-194.986667-177.066667-363.52-258.56-430.933333A42.666667 42.666667 0 0 0 524.8 85.333333h-25.6a42.666667 42.666667 0 0 0-27.306667 9.813334C390.4 162.56 213.333333 331.093333 213.333333 526.08a298.666667 298.666667 0 0 0 256 295.253333v96a21.333333 21.333333 0 0 0 21.333334 21.333334h42.666666a21.333333 21.333333 0 0 0 21.333334-21.333334v-96a298.666667 298.666667 0 0 0 256-295.253333z m-256 209.066667V448a21.333333 21.333333 0 0 0-21.333334-21.333333h-42.666666a21.333333 21.333333 0 0 0-21.333334 21.333333v287.146667a213.333333 213.333333 0 0 1-170.666666-209.066667C298.666667 386.56 426.666667 246.613333 512 170.666667c85.333333 74.24 213.333333 213.333333 213.333333 353.706666a213.333333 213.333333 0 0 1-170.666666 210.773334z" /></svg>