<?xml version="1.0" standalone="no"?><!DOCTYPE svg PUBLIC "-//W3C//DTD SVG 1.1//EN" "http://www.w3.org/Graphics/SVG/1.1/DTD/svg11.dtd"><svg class="icon" width="48px" height="48.00px" viewBox="0 0 1024 1024" version="1.1" xmlns="http://www.w3.org/2000/svg"><path d="M384 642.986667v-193.28h126.293333v-8.533334a201.813333 201.813333 0 1 1 226.986667 200.32v1.493334z" fill="#DDE5FF" /><path d="M114.986667 373.973333a269.013333 269.013333 0 0 0 538.026666 0 269.013333 269.013333 0 1 0-538.026666 0z" fill="#ECF1FF" /><path d="M583.253333 446.72a24.746667 24.746667 0 0 1 16.64 35.84l-85.333333 236.16a24.746667 24.746667 0 0 1-35.84 16.64 24.533333 24.533333 0 0 1-16.64-35.626667l85.333333-236.16a24.746667 24.746667 0 0 1 35.84-16.853333z" fill="#92D0FF" /><path d="M448 822.613333a27.946667 27.946667 0 0 1 16.64 35.84l-10.453333 29.226667a27.946667 27.946667 0 0 1-35.84 16.64 28.16 28.16 0 0 1-16.853334-35.84l10.666667-29.226667a27.946667 27.946667 0 0 1 35.84-16.64z m181.333333-11.946666a27.946667 27.946667 0 0 1 16.64 35.84l-15.36 42.666666a27.946667 27.946667 0 0 1-52.48-19.2l15.36-42.666666A27.946667 27.946667 0 0 1 629.333333 810.666667z m-341.333333-19.413334a27.52 27.52 0 0 1 16.64 35.626667l-19.84 54.613333a27.946667 27.946667 0 0 1-52.48-19.2l19.84-54.4a27.946667 27.946667 0 0 1 35.84-16.64z" fill="#88B5FF" /><path d="M369.92 512a24.746667 24.746667 0 0 1 16.64 35.84l-35.84 98.773333a24.746667 24.746667 0 0 1-35.84 16.64 24.96 24.96 0 0 1-16.213333-36.693333l36.053333-98.773333a24.746667 24.746667 0 0 1 35.2-15.786667z m353.706667 10.453333a24.746667 24.746667 0 0 1 16.64 35.84L704 656.213333a27.946667 27.946667 0 1 1-52.48-19.2l35.84-98.773333a24.746667 24.746667 0 0 1 35.84-16.64z" fill="#92D0FF" /></svg>