<?xml version="1.0" standalone="no"?><!DOCTYPE svg PUBLIC "-//W3C//DTD SVG 1.1//EN" "http://www.w3.org/Graphics/SVG/1.1/DTD/svg11.dtd"><svg class="icon" width="48px" height="48.00px" viewBox="0 0 1024 1024" version="1.1" xmlns="http://www.w3.org/2000/svg"><path d="M384 642.986667v-193.28h126.293333v-8.533334a201.813333 201.813333 0 1 1 226.986667 200.32v1.493334z" fill="#DDE5FF" /><path d="M114.986667 373.973333a269.013333 269.013333 0 0 0 538.026666 0 269.013333 269.013333 0 1 0-538.026666 0z" fill="#ECF1FF" /><path d="M533.333333 634.666667c8.533333-14.933333 21.333333-23.466667 29.013334-19.2s6.4 19.84-2.133334 34.56a79.36 79.36 0 0 1-17.92 19.84 80.426667 80.426667 0 0 1 26.24-5.546667c17.066667 0 30.933333 6.826667 30.933334 15.36s-13.866667 15.573333-30.933334 15.573333a85.333333 85.333333 0 0 1-28.8-7.253333 97.28 97.28 0 0 1 21.333334 21.333333c8.533333 14.933333 9.386667 30.293333 2.133333 34.56s-21.333333-4.266667-29.013333-18.986666a82.133333 82.133333 0 0 1-8.106667-25.6 76.8 76.8 0 0 1-8.32 25.6c-8.533333 14.72-21.333333 23.253333-28.8 18.986666s-6.4-19.626667 2.133333-34.56a92.373333 92.373333 0 0 1 21.333334-21.333333 85.333333 85.333333 0 0 1-28.8 7.253333c-17.066667 0-30.933333-7.04-30.933334-15.573333s13.866667-15.36 30.933334-15.36a81.706667 81.706667 0 0 1 26.24 5.546667 79.36 79.36 0 0 1-17.92-19.84c-8.533333-14.72-9.6-30.293333-2.133334-34.56s21.333333 4.266667 28.8 19.2a83.413333 83.413333 0 0 1 8.32 28.373333 89.173333 89.173333 0 0 1 6.4-28.373333z m-8.106666 34.346666a7.68 7.68 0 0 1-2.986667 5.76 6.186667 6.186667 0 0 1-5.546667 0 6.826667 6.826667 0 0 1 2.773334 4.906667 7.893333 7.893333 0 0 1-3.626667 5.546667 6.4 6.4 0 0 1 6.4 0 6.826667 6.826667 0 0 1 2.986667 4.693333 6.613333 6.613333 0 0 1 2.773333-4.693333 6.826667 6.826667 0 0 1 6.613333 0 7.253333 7.253333 0 0 1-3.626666-5.546667 6.826667 6.826667 0 0 1 2.773333-4.906667 6.826667 6.826667 0 0 1-5.76 0 7.466667 7.466667 0 0 1-2.773333-5.76z" fill="#88B5FF" /><path d="M520.32 863.786667c8.96-6.186667 18.56-7.466667 21.333333-3.2s-1.493333 13.226667-10.453333 19.413333a51.413333 51.413333 0 0 1-14.933333 6.4 44.586667 44.586667 0 0 1 16.64 3.84c9.813333 4.48 16 12.16 13.653333 17.066667s-11.946667 5.12-21.333333 0a55.04 55.04 0 0 1-14.506667-11.946667 56.32 56.32 0 0 1 5.973333 17.92c0 10.88-2.56 19.84-7.893333 21.333333s-10.666667-7.893333-11.52-18.773333a49.92 49.92 0 0 1 2.133333-16.853333 50.56 50.56 0 0 1-11.733333 12.373333c-8.746667 6.186667-18.56 7.68-21.333333 3.2s1.493333-13.013333 10.453333-19.2a55.253333 55.253333 0 0 1 17.493333-6.826667 56.96 56.96 0 0 1-18.56-3.626666c-9.813333-4.48-15.786667-12.16-13.653333-17.066667s12.16-5.333333 21.333333 0a50.56 50.56 0 0 1 13.653334 10.24 59.946667 59.946667 0 0 1-4.693334-15.573333c0-10.88 2.773333-20.053333 8.106667-21.333334s10.666667 7.893333 11.52 18.773334a55.253333 55.253333 0 0 1-2.986667 18.56 61.866667 61.866667 0 0 1 11.306667-14.72z m-13.866667 17.493333a4.266667 4.266667 0 0 1-2.773333 2.133333 4.48 4.48 0 0 1-3.2-1.493333 5.333333 5.333333 0 0 1 0 3.626667 5.546667 5.546667 0 0 1-3.626667 2.133333c1.92 0 3.2 0 3.84 1.493333a3.84 3.84 0 0 1 0 3.413334 4.266667 4.266667 0 0 1 2.986667-1.92c1.28 0 2.346667 0 3.626667 1.92a3.84 3.84 0 0 1 0-3.413334 4.053333 4.053333 0 0 1 2.986666-2.133333 4.266667 4.266667 0 0 1-3.413333-1.493333 4.906667 4.906667 0 0 1-0.426667-4.266667z" fill="#92D0FF" /></svg>