<?xml version="1.0" standalone="no"?><!DOCTYPE svg PUBLIC "-//W3C//DTD SVG 1.1//EN" "http://www.w3.org/Graphics/SVG/1.1/DTD/svg11.dtd"><svg class="icon" width="48px" height="48.00px" viewBox="0 0 1024 1024" version="1.1" xmlns="http://www.w3.org/2000/svg"><path d="M384 642.986667v-193.28h126.293333v-8.533334a201.813333 201.813333 0 1 1 226.986667 200.32v1.493334z" fill="#DDE5FF" /><path d="M114.986667 373.973333a269.013333 269.013333 0 0 0 538.026666 0 269.013333 269.013333 0 1 0-538.026666 0z" fill="#ECF1FF" /><path d="M490.666667 791.893333a27.52 27.52 0 0 1 16.64 35.626667l-19.84 54.613333a27.946667 27.946667 0 0 1-52.48-19.2l19.84-54.4a27.946667 27.946667 0 0 1 35.84-16.64z" fill="#88B5FF" /><path d="M571.733333 512a24.746667 24.746667 0 0 1 16.64 35.84l-36.053333 98.773333a24.533333 24.533333 0 0 1-35.626667 16.64 24.96 24.96 0 0 1-16.853333-35.84l36.053333-98.773333A24.746667 24.746667 0 0 1 571.733333 512z" fill="#92D0FF" /></svg>