<?xml version="1.0" standalone="no"?><!DOCTYPE svg PUBLIC "-//W3C//DTD SVG 1.1//EN" "http://www.w3.org/Graphics/SVG/1.1/DTD/svg11.dtd"><svg class="icon" width="48px" height="48.00px" viewBox="0 0 1024 1024" version="1.1" xmlns="http://www.w3.org/2000/svg"><path d="M761 167.564c-45.745 0-87.487 24.725-108.917 64.14-8.741 16.085-2.532 36.072 13.861 44.646 15.789 8.266 35.273 2.923 44.498-11.841l1.024-1.75c9.756-17.958 28.71-29.185 49.524-29.185 30.98 0 56.078 24.623 56.078 55.008 0 29.584-23.794 53.713-53.639 54.96l-2.792 0.057H154.652c-18.581 0-33.643 14.764-33.643 33 0.01 18.227 15.071 33.001 33.652 33.001h606.264c68.208 0 123.439-54.179 123.439-121.018S829.133 167.564 761 167.564z m-184.767 707.49a122.042 122.042 0 0 1-107.65-64.14 32.88 32.88 0 0 1 13.702-44.645 33.401 33.401 0 0 1 43.986 11.84l1.005 1.75a55.464 55.464 0 0 0 48.966 29.185c30.608 0 55.426-24.623 55.426-55.008 0-29.584-23.524-53.713-53.024-54.96l-2.765-0.056H154.27c-18.357 0-33.252-14.755-33.252-32.992 0-18.236 14.895-33.01 33.262-33.01h421.878c67.426 0 122.024 54.18 122.024 121.018s-54.598 121.019-121.95 121.019zM153.6 484.073h316.51q32.58 0 32.58 32.582 0 32.581-32.58 32.581H153.6q-32.582 0-32.582-32.581 0-32.582 32.582-32.582zM698.182 530.618a46.545 46.545 0 1 0 93.09 0 46.545 46.545 0 1 0-93.09 0zM847.127 451.49a32.582 32.582 0 1 0 65.164 0 32.582 32.582 0 1 0-65.164 0zM772.655 674.91a32.582 32.582 0 1 0 65.163 0 32.582 32.582 0 1 0-65.163 0zM884.364 591.127a32.582 32.582 0 1 0 65.163 0 32.582 32.582 0 1 0-65.163 0z" fill="#A1BCE4" /></svg>