<?xml version="1.0" standalone="no"?><!DOCTYPE svg PUBLIC "-//W3C//DTD SVG 1.1//EN" "http://www.w3.org/Graphics/SVG/1.1/DTD/svg11.dtd"><svg class="icon" width="48px" height="48.00px" viewBox="0 0 1024 1024" version="1.1" xmlns="http://www.w3.org/2000/svg"><path d="M530.618 148.945c200.518 0 363.055 162.537 363.055 363.055 0 32.182-4.19 63.376-12.046 93.09H179.61A363.594 363.594 0 0 1 167.564 512c0-200.518 162.536-363.055 363.054-363.055z" fill="#FFA448" /><path d="M530.618 148.945c90.02 0 172.405 32.768 235.846 87.031 65.9 107.678 48.929 254.362-38.698 369.115l-548.156 0.01A363.594 363.594 0 0 1 167.564 512c0-200.518 162.536-363.055 363.054-363.055z" fill="#FFBF40" /><path d="M530.618 148.945c1.108 0 2.206 0 3.305 0.02 32.73 8.089 61.3 24.63 82.478 49.868 69.4 82.711 33.076 227.449-81.138 323.286C421.041 617.956 272.19 628.596 202.8 545.894c-17.837-21.252-28.691-46.61-33.03-74.174 20.043-181.556 173.96-322.775 360.85-322.775z" fill="#FFD44E" /><path d="M303.217 254.506A93.09 111.71 50 1 0 422.892 397.13a93.09 111.71 50 1 0-119.675-142.624z" fill="#FFE174" /><path d="M162.909 660.945h390.982q32.582 0 32.582 32.582T553.89 726.11H162.909q-32.582 0-32.582-32.582t32.582-32.582zM162.909 781.964h726.11q32.581 0 32.581 32.581 0 32.582-32.582 32.582H162.91q-32.582 0-32.582-32.582 0-32.581 32.582-32.581zM712.145 660.945h176.873q32.582 0 32.582 32.582t-32.582 32.582H712.145q-32.581 0-32.581-32.582t32.581-32.582z" fill="#79A6E7" /></svg>