<svg xmlns="http://www.w3.org/2000/svg" viewBox="0 0 80 80"><defs><style>.cls-1{fill:none;}</style></defs><g id="图层_2" data-name="图层 2"><g id="图层_1-2" data-name="图层 1"><g id="温度"><rect class="cls-1" width="80" height="80"/><path d="M24,65.07a9.11,9.11,0,0,1-2.3-17.94v-30a2.29,2.29,0,0,1,4.58,0v30A9.11,9.11,0,0,1,24,65.07Zm9.16-22.23V17.16a9.16,9.16,0,0,0-18.32,0V42.84a16,16,0,1,0,18.32,0Z"/><path d="M49.17,21.71a11.42,11.42,0,1,0,8.09,3.34,11.42,11.42,0,0,0-8.09-3.34Z"/><path d="M49.17,19.43a2.25,2.25,0,0,0,2.26-2.26V12.59a2.29,2.29,0,0,0-4.58,0v4.57a2.25,2.25,0,0,0,2.3,2.26Z"/><path d="M49.17,46.8a2.31,2.31,0,0,0-2.3,2.26v4.56a2.29,2.29,0,1,0,4.58,0V49.1a2.25,2.25,0,0,0-2.26-2.26Z"/><path d="M62.11,42.8a2.29,2.29,0,0,0-2.21-.6,2.3,2.3,0,0,0-1,3.84l3.25,3.21h0a2.29,2.29,0,0,0,1.62.68A2.25,2.25,0,0,0,65.34,46Z"/><path d="M69.77,30.84H65.19a2.28,2.28,0,1,0,0,4.56h4.58a2.21,2.21,0,0,0,1.54-.6A2.24,2.24,0,0,0,72,33.31v-.37a2.24,2.24,0,0,0-2.25-2.1Z"/><path d="M60.5,24.11a2.22,2.22,0,0,0,1.61-.69l3.23-3.21h0a2.25,2.25,0,0,0,0-3.24,2.33,2.33,0,0,0-3.23,0l-3.25,3.24h0a2.26,2.26,0,0,0,1.64,3.88Z"/></g></g></g></svg>