<svg xmlns="http://www.w3.org/2000/svg" viewBox="0 0 80 80"><defs><style>.cls-1{fill:none;}</style></defs><g id="图层_2" data-name="图层 2"><g id="图层_1-2" data-name="图层 1"><g id="降水"><rect class="cls-1" width="80" height="80"/><path d="M37.55,72a2.43,2.43,0,0,1-1.75-.7,2.4,2.4,0,0,1-.73-1.74V54.77a2.47,2.47,0,0,1,4.94,0V69.55a2.47,2.47,0,0,1-.71,1.72,2.44,2.44,0,0,1-1.73.71Z"/><path d="M27.63,67.07a2.42,2.42,0,0,1-2.43-2.43V49.84a2.46,2.46,0,0,1,4.92,0V64.62a2.4,2.4,0,0,1-.71,1.72,2.42,2.42,0,0,1-1.72.72Z"/><path d="M47.39,67.07a2.42,2.42,0,0,1-2.47-2.43V49.84a2.47,2.47,0,1,1,4.94,0V64.62a2.44,2.44,0,0,1-2.43,2.44Z"/><path d="M47.39,8A24.49,24.49,0,0,0,23.86,25.23a16,16,0,0,0-3.62,31.55V49.84a7.39,7.39,0,0,1,14.52-1.92,7.52,7.52,0,0,1,5.52,0,7.39,7.39,0,0,1,14.53,1.92v6.24A24.59,24.59,0,0,0,47.4,8Z"/></g></g></g></svg>