<svg xmlns="http://www.w3.org/2000/svg" viewBox="0 0 80 80"><defs><style>.cls-1{fill:none;}</style></defs><g id="图层_2" data-name="图层 2"><g id="图层_1-2" data-name="图层 1"><g id="风速"><rect class="cls-1" width="80" height="80"/><path d="M57,25.28A75.65,75.65,0,0,1,50.09,22V42.36a49.22,49.22,0,0,0,6.87-.1Z"/><path d="M70,27.77a2.35,2.35,0,0,0-1.75-.6,22.19,22.19,0,0,1-6.7-.48V41.51a33.33,33.33,0,0,0,8-3.21,2.26,2.26,0,0,0,1.19-2V29.45A2.28,2.28,0,0,0,70,27.78Z"/><path d="M27.18,37.52,20.29,32V29.66l6.89-5.48ZM34,16.34a25.44,25.44,0,0,0-4.78-.06,2.27,2.27,0,0,0-1.38.64,2.25,2.25,0,0,0-.66,1.36l-6.94,5.54V10.29a2.3,2.3,0,0,0-4.59,0V69.71a2.3,2.3,0,0,0,4.59,0V37.91l6.9,5.47v.33a2.28,2.28,0,0,0,1.12,1.95,2.25,2.25,0,0,0,1.16.32,2.34,2.34,0,0,0,1.13-.28,29.49,29.49,0,0,1,3.46-1.63Z"/><path d="M45.5,19.72a39.72,39.72,0,0,0-6.87-2.58V42.7a30.45,30.45,0,0,1,6.87-.54Z"/><path d="M11.53,72a2.26,2.26,0,0,1,0-4.52H24.34a2.26,2.26,0,1,1,0,4.52Z"/></g></g></g></svg>