<svg xmlns="http://www.w3.org/2000/svg" viewBox="0 0 61.26 64"><g id="图层_2" data-name="图层 2"><g id="图层_1-2" data-name="图层 1"><path id="认证" d="M61.23,5.66a2.54,2.54,0,0,0-.89-1.58c-.1-.1-1.68-1.29-4.15-3.17A2.54,2.54,0,0,0,53.82.62C40.27,6.45,32.46.82,32.06.52a2.25,2.25,0,0,0-2.87,0c-.09.1-8,5.93-21.75.1A2.54,2.54,0,0,0,5.07.91C2.6,2.79,1,4,.92,4.08A2.49,2.49,0,0,0,0,5.66,2.33,2.33,0,0,0,.52,7.44c.1.1,5.14,6.63,2.77,16.51C1.9,29.79.42,35.82,1.71,41.46,3.19,48.18,8.23,52.93,16.93,56H17A25.85,25.85,0,0,1,28.7,63.11a2.43,2.43,0,0,0,3.76,0A25,25,0,0,1,44.13,56h.09C53,52.93,58,48.18,59.45,41.46c1.29-5.74-.2-11.77-1.58-17.51A20.31,20.31,0,0,1,60.64,7.44,2.09,2.09,0,0,0,61.23,5.66Zm-43,6.82c1.38,1.88,2.77,4.06,4.25,6.43-1.09.59-2.47,1.39-4.25,2.47-1.29-2.27-2.57-4.45-3.86-6.52ZM15.15,41.26A3.83,3.83,0,0,0,16,38.69V27.51H13.28V23h7.51V36.81l3.07-2.47c.09,1,.39,2.57.79,4.74-2.18,1.58-4.65,3.46-7.42,5.84Zm32.54,4.05H23.06V40.66h2.87V23.26h4.65V40.57h3.76V19.41H24.15V14.86H47.29v4.55H39.08v7.81H46.5v4.64H39.08v8.8h8.61Z"/></g></g></svg>