<svg xmlns="http://www.w3.org/2000/svg" viewBox="0 0 80 80"><defs><style>.cls-1{fill:none;}</style></defs><g id="图层_2" data-name="图层 2"><g id="图层_1-2" data-name="图层 1"><g id="湿度"><rect class="cls-1" width="80" height="80"/><path d="M32,65.07a9.1,9.1,0,0,1-2.25-17.93V38.8a2.29,2.29,0,1,1,4.57,0v8.34A9.11,9.11,0,0,1,32,65.07Zm-2.38-47.8a2.24,2.24,0,0,1,1.13-1.95,2.21,2.21,0,0,1,2.25,0,2.24,2.24,0,0,1,1.13,1.95v12a2.26,2.26,0,0,1-4.51,0ZM41.15,42.83V17.16a9.16,9.16,0,1,0-18.31,0V42.85a16,16,0,1,0,18.31,0Z"/><path d="M50.3,19.45H61.74a2.28,2.28,0,0,0,0-4.56H50.3a2.28,2.28,0,0,0,0,4.56Z"/><path d="M50.3,28.58h4.58a2.29,2.29,0,0,0,2.26-2.29A2.25,2.25,0,0,0,54.88,24H50.3A2.25,2.25,0,0,0,48,26.29a2.34,2.34,0,0,0,.68,1.62,2.3,2.3,0,0,0,1.62.67Z"/><path d="M61.74,33.12H50.3a2.29,2.29,0,0,0,0,4.57H61.74a2.29,2.29,0,0,0,0-4.57Z"/><path d="M54.88,42.24H50.3a2.28,2.28,0,0,0,0,4.56h4.58a2.3,2.3,0,0,0,2-1.14,2.28,2.28,0,0,0-2-3.42Z"/></g></g></g></svg>