<?xml version="1.0" standalone="no"?><!DOCTYPE svg PUBLIC "-//W3C//DTD SVG 1.1//EN" "http://www.w3.org/Graphics/SVG/1.1/DTD/svg11.dtd"><svg class="icon" width="48px" height="48.00px" viewBox="0 0 1024 1024" version="1.1" xmlns="http://www.w3.org/2000/svg"><path d="M384 642.986667v-193.28h126.293333v-8.533334a201.813333 201.813333 0 1 1 226.986667 200.32v1.493334z" fill="#DDE5FF" /><path d="M114.986667 373.973333a269.013333 269.013333 0 0 0 538.026666 0 269.013333 269.013333 0 1 0-538.026666 0z" fill="#ECF1FF" /><path d="M643.2 634.666667c8.533333-14.933333 21.333333-23.466667 28.8-19.2s6.613333 19.84-1.92 34.56a80.64 80.64 0 0 1-18.133333 19.84 82.773333 82.773333 0 0 1 26.24-5.546667c17.066667 0 30.933333 6.826667 30.933333 15.36s-13.866667 15.573333-30.933333 15.573333a86.826667 86.826667 0 0 1-28.8-7.253333 94.08 94.08 0 0 1 21.333333 21.333333c8.533333 14.933333 9.386667 30.293333 1.92 34.56s-20.266667-4.266667-28.8-18.986666a77.013333 77.013333 0 0 1-8.106667-25.6 81.92 81.92 0 0 1-8.32 25.6c-8.533333 14.72-21.333333 23.253333-28.8 18.986666s-6.4-19.626667 2.133334-34.56a88.106667 88.106667 0 0 1 21.333333-21.333333 86.826667 86.826667 0 0 1-28.8 7.253333c-17.066667 0-30.933333-7.04-30.933333-15.573333s13.866667-15.36 30.933333-15.36a82.773333 82.773333 0 0 1 25.386667 5.546667 79.36 79.36 0 0 1-17.92-19.84c-8.533333-14.72-9.6-30.293333-2.133334-34.56s20.266667 4.266667 28.8 19.2a83.413333 83.413333 0 0 1 8.32 28.373333 89.173333 89.173333 0 0 1 8.106667-28.373333z m-8.106667 34.346666a7.68 7.68 0 0 1-2.986666 5.76 6.186667 6.186667 0 0 1-5.546667 0 6.826667 6.826667 0 0 1 2.773333 4.906667 7.893333 7.893333 0 0 1-3.626666 5.546667 6.4 6.4 0 0 1 6.4 0 7.466667 7.466667 0 0 1 2.986666 4.693333 6.613333 6.613333 0 0 1 2.773334-4.693333 6.826667 6.826667 0 0 1 6.613333 0 7.253333 7.253333 0 0 1-3.626667-5.546667 6.826667 6.826667 0 0 1 2.773334-4.906667 6.826667 6.826667 0 0 1-5.76 0 6.826667 6.826667 0 0 1-2.773334-5.76z" fill="#88B5FF" /><path d="M631.253333 863.786667c8.96-6.186667 18.56-7.466667 21.333334-3.2s-1.706667 13.226667-10.453334 19.413333a51.413333 51.413333 0 0 1-14.933333 6.4 44.586667 44.586667 0 0 1 16.64 3.84c9.813333 4.48 16 12.16 13.653333 17.066667s-12.16 5.12-21.333333 0a59.093333 59.093333 0 0 1-14.72-11.946667 52.693333 52.693333 0 0 1 6.186667 17.92c1.066667 10.88-2.56 19.84-8.106667 21.333333s-10.453333-7.893333-11.306667-18.773333a49.28 49.28 0 0 1 1.92-16.853333 46.506667 46.506667 0 0 1-11.52 12.373333c-8.746667 6.186667-18.56 7.68-21.333333 3.2s1.706667-13.013333 10.453333-19.2a58.88 58.88 0 0 1 17.706667-6.826667 55.893333 55.893333 0 0 1-18.56-3.626666c-9.813333-4.48-15.786667-12.16-13.653333-17.066667s12.16-5.333333 21.333333 0a50.56 50.56 0 0 1 13.653333 10.24 52.693333 52.693333 0 0 1-4.693333-15.573333c0-10.88 2.773333-20.053333 8.106667-21.333334s10.453333 7.893333 11.52 18.773334a55.253333 55.253333 0 0 1-2.986667 18.56 61.866667 61.866667 0 0 1 11.093333-14.72z m-13.866666 17.493333a4.266667 4.266667 0 0 1-2.773334 2.133333 4.48 4.48 0 0 1-3.413333-1.493333 4.48 4.48 0 0 1 0 3.626667 5.546667 5.546667 0 0 1-3.626667 2.133333 4.266667 4.266667 0 0 1 3.84 1.493333 4.48 4.48 0 0 1 0 3.413334 4.266667 4.266667 0 0 1 2.986667-1.92c1.066667 0 2.346667 0 3.626667 1.92a3.84 3.84 0 0 1 0-3.413334 4.053333 4.053333 0 0 1 2.773333-2.133333 3.84 3.84 0 0 1-3.2-1.493333 4.906667 4.906667 0 0 1-0.213333-4.266667zM423.893333 558.506667c16.426667-11.093333 34.133333-13.44 39.68-5.12s-3.2 23.68-19.626666 34.56a90.026667 90.026667 0 0 1-28.8 11.52 92.586667 92.586667 0 0 1 30.08 7.466666c17.706667 8.533333 28.586667 22.826667 24.32 31.573334s-21.333333 9.173333-39.893334 0a99.413333 99.413333 0 0 1-26.24-21.333334 100.266667 100.266667 0 0 1 10.453334 32.426667c1.493333 19.626667-5.333333 36.266667-15.36 36.906667s-18.773333-14.72-20.266667-34.346667a93.866667 93.866667 0 0 1 4.48-30.72 94.08 94.08 0 0 1-21.333333 22.4c-16.426667 10.88-34.133333 13.226667-39.68 5.12s3.2-23.68 19.626666-34.773333a106.666667 106.666667 0 0 1 32-11.733334 106.666667 106.666667 0 0 1-33.28-7.04c-17.706667-8.746667-28.586667-22.826667-24.32-31.786666s21.333333-8.96 39.893334 0a90.24 90.24 0 0 1 24.32 19.2 91.946667 91.946667 0 0 1-8.533334-29.653334c-1.493333-19.84 5.546667-36.266667 15.36-36.906666s18.773333 14.72 20.266667 34.346666a102.826667 102.826667 0 0 1-5.973333 33.706667 106.666667 106.666667 0 0 1 22.826666-25.813333z m-25.813333 31.36a7.893333 7.893333 0 0 1-5.546667 4.053333 9.173333 9.173333 0 0 1-5.76-2.773333 6.826667 6.826667 0 0 1 0 6.4 8.32 8.32 0 0 1-6.4 3.84 9.386667 9.386667 0 0 1 7.04 2.773333 8.106667 8.106667 0 0 1 0 6.4 8.746667 8.746667 0 0 1 5.546667-3.413333 8.32 8.32 0 0 1 6.4 3.626666 8.106667 8.106667 0 0 1 0-7.466666 7.253333 7.253333 0 0 1 5.12-3.626667 8.32 8.32 0 0 1-5.76-2.986667 8.32 8.32 0 0 1 0-7.466666z" fill="#92D0FF" /><path d="M396.586667 771.626667a59.946667 59.946667 0 0 1-3.2 21.333333 64 64 0 0 1 13.866666-16c10.026667-6.826667 21.333333-8.533333 24.32-3.626667s-1.706667 14.72-11.733333 21.333334a53.333333 53.333333 0 0 1-17.493333 7.253333 62.506667 62.506667 0 0 1 18.56 4.266667c11.093333 5.12 17.92 13.866667 15.36 19.413333s-13.653333 5.76-24.746667 0a67.2 67.2 0 0 1-16.426667-13.226667 60.373333 60.373333 0 0 1 7.04 19.84c0 12.16-2.986667 22.4-9.173333 22.826667s-11.733333-8.746667-12.8-21.333333a58.24 58.24 0 0 1 2.346667-18.986667 56.106667 56.106667 0 0 1-13.013334 14.08c-10.026667 7.04-21.333333 8.533333-24.32 3.626667s1.706667-14.72 11.733334-21.333334a61.653333 61.653333 0 0 1 19.626666-7.68 61.013333 61.013333 0 0 1-21.333333-4.053333c-10.88-5.12-17.92-13.866667-15.146667-19.2s13.44-5.973333 24.533334 0a56.96 56.96 0 0 1 15.146666 11.52 58.88 58.88 0 0 1-5.546666-18.346667c-1.066667-12.16 2.986667-21.333333 8.96-22.826666s11.733333 8.746667 12.8 21.333333z m-4.906667 24.746666a4.266667 4.266667 0 0 1-2.986667 1.92 4.48 4.48 0 0 1-3.626666-1.706666 4.48 4.48 0 0 1 0 4.053333c0 1.28-1.92 1.92-3.84 2.346667a5.546667 5.546667 0 0 1 4.053333 1.706666 5.12 5.12 0 0 1 0 4.053334 4.053333 4.053333 0 0 1 7.253333 0 5.546667 5.546667 0 0 1 0-4.693334 5.333333 5.333333 0 0 1 3.2-2.346666 5.333333 5.333333 0 0 1-3.626666-1.706667 5.333333 5.333333 0 0 1 0-4.48z" fill="#88B5FF" /></svg>