<?xml version="1.0" standalone="no"?><!DOCTYPE svg PUBLIC "-//W3C//DTD SVG 1.1//EN" "http://www.w3.org/Graphics/SVG/1.1/DTD/svg11.dtd"><svg class="icon" width="48px" height="48.00px" viewBox="0 0 1024 1024" version="1.1" xmlns="http://www.w3.org/2000/svg"><path d="M384 642.986667v-193.28h126.293333v-8.533334a201.813333 201.813333 0 1 1 226.986667 200.32v1.493334z" fill="#DDE5FF" /><path d="M114.986667 373.973333a269.013333 269.013333 0 0 0 538.026666 0 269.013333 269.013333 0 1 0-538.026666 0z" fill="#ECF1FF" /><path d="M533.333333 634.666667c8.533333-14.933333 21.333333-23.466667 29.013334-19.2s6.4 19.84-2.133334 34.56a79.36 79.36 0 0 1-17.92 19.84 80.426667 80.426667 0 0 1 26.24-5.546667c17.066667 0 30.933333 6.826667 30.933334 15.36s-13.866667 15.573333-30.933334 15.573333a85.333333 85.333333 0 0 1-28.8-7.253333 97.28 97.28 0 0 1 21.333334 21.333333c8.533333 14.933333 9.386667 30.293333 2.133333 34.56s-21.333333-4.266667-29.013333-18.986666a82.133333 82.133333 0 0 1-8.106667-25.6 76.8 76.8 0 0 1-8.32 25.6c-8.533333 14.72-21.333333 23.253333-28.8 18.986666s-6.4-19.626667 2.133333-34.56a92.373333 92.373333 0 0 1 21.333334-21.333333 85.333333 85.333333 0 0 1-28.8 7.253333c-17.066667 0-30.933333-7.04-30.933334-15.573333s13.866667-15.36 30.933334-15.36a81.706667 81.706667 0 0 1 26.24 5.546667 79.36 79.36 0 0 1-17.92-19.84c-8.533333-14.72-9.6-30.293333-2.133334-34.56s21.333333 4.266667 28.8 19.2a83.413333 83.413333 0 0 1 8.32 28.373333 89.173333 89.173333 0 0 1 6.4-28.373333z m-8.106666 34.346666a7.68 7.68 0 0 1-2.986667 5.76 6.186667 6.186667 0 0 1-5.546667 0 6.826667 6.826667 0 0 1 2.773334 4.906667 7.893333 7.893333 0 0 1-3.626667 5.546667 6.4 6.4 0 0 1 6.4 0 6.826667 6.826667 0 0 1 2.986667 4.693333 6.613333 6.613333 0 0 1 2.773333-4.693333 6.826667 6.826667 0 0 1 6.613333 0 7.253333 7.253333 0 0 1-3.626666-5.546667 6.826667 6.826667 0 0 1 2.773333-4.906667 6.826667 6.826667 0 0 1-5.76 0 7.466667 7.466667 0 0 1-2.773333-5.76z" fill="#88B5FF" /><path d="M520.32 863.786667c8.96-6.186667 18.56-7.466667 21.333333-3.2s-1.493333 13.226667-10.453333 19.413333a51.413333 51.413333 0 0 1-14.933333 6.4 44.586667 44.586667 0 0 1 16.64 3.84c9.813333 4.48 16 12.16 13.653333 17.066667s-11.946667 5.12-21.333333 0a55.04 55.04 0 0 1-14.506667-11.946667 56.32 56.32 0 0 1 5.973333 17.92c0 10.88-2.56 19.84-7.893333 21.333333s-10.666667-7.893333-11.52-18.773333a49.92 49.92 0 0 1 2.133333-16.853333 50.56 50.56 0 0 1-11.733333 12.373333c-8.746667 6.186667-18.56 7.68-21.333333 3.2s1.493333-13.013333 10.453333-19.2a55.253333 55.253333 0 0 1 17.493333-6.826667 56.96 56.96 0 0 1-18.56-3.626666c-9.813333-4.48-15.786667-12.16-13.653333-17.066667s12.16-5.333333 21.333333 0a50.56 50.56 0 0 1 13.653334 10.24 59.946667 59.946667 0 0 1-4.693334-15.573333c0-10.88 2.773333-20.053333 8.106667-21.333334s10.666667 7.893333 11.52 18.773334a55.253333 55.253333 0 0 1-2.986667 18.56 61.866667 61.866667 0 0 1 11.306667-14.72z m-13.866667 17.493333a4.266667 4.266667 0 0 1-2.773333 2.133333 4.48 4.48 0 0 1-3.2-1.493333 5.333333 5.333333 0 0 1 0 3.626667 5.546667 5.546667 0 0 1-3.626667 2.133333c1.92 0 3.2 0 3.84 1.493333a3.84 3.84 0 0 1 0 3.413334 4.266667 4.266667 0 0 1 2.986667-1.92c1.28 0 2.346667 0 3.626667 1.92a3.84 3.84 0 0 1 0-3.413334 4.053333 4.053333 0 0 1 2.986666-2.133333 4.266667 4.266667 0 0 1-3.413333-1.493333 4.906667 4.906667 0 0 1-0.426667-4.266667z m266.666667-381.653333c14.293333-16.426667 32.426667-23.893333 40.746667-16.64s3.2 26.24-11.093334 42.666666a103.466667 103.466667 0 0 1-27.306666 21.333334 103.68 103.68 0 0 1 34.133333 0c21.333333 4.266667 37.12 16.213333 34.986667 26.88s-21.333333 16-42.666667 11.946666a112.853333 112.853333 0 0 1-34.133333-16 119.893333 119.893333 0 0 1 21.333333 31.786667c7.04 21.333333 4.48 40.106667-5.76 42.666667s-24.533333-10.24-31.573333-30.72a107.946667 107.946667 0 0 1-5.12-34.773334 100.48 100.48 0 0 1-16.426667 29.866667c-14.293333 16.426667-32.64 23.893333-40.746667 16.853333s-3.2-26.24 10.88-42.666666a114.773333 114.773333 0 0 1 30.933334-21.333334 112 112 0 0 1-37.546667 1.92c-21.333333-4.053333-37.12-16.213333-34.986667-26.88s21.333333-16 42.666667-11.733333a101.333333 101.333333 0 0 1 31.36 13.44 106.666667 106.666667 0 0 1-17.706667-29.226667c-7.04-21.333333-4.48-40.106667 5.76-43.733333s24.533333 10.24 31.573334 30.933333a112.426667 112.426667 0 0 1 3.413333 37.12 113.92 113.92 0 0 1 17.28-33.706666z m-18.56 40.96v1.493333a8.106667 8.106667 0 0 1-4.693333 5.12 8.746667 8.746667 0 0 1-7.04-1.28 7.466667 7.466667 0 0 1-3.626667 12.8 8.96 8.96 0 0 1 8.32 0 8.32 8.32 0 0 1 2.346667 6.613333 7.466667 7.466667 0 0 1 12.8-3.2 9.386667 9.386667 0 0 1-3.2-7.68 8.533333 8.533333 0 0 1 4.693333-5.333333 10.24 10.24 0 0 1-7.04-1.493333 8.96 8.96 0 0 1-2.133333-8.106667z" fill="#92D0FF" /><path d="M783.573333 827.733333c8.32-5.973333 17.493333-7.253333 21.333334-2.986666s-1.493333 12.373333-9.813334 18.346666a54.186667 54.186667 0 0 1-14.933333 6.186667 46.506667 46.506667 0 0 1 15.786667 3.626667c9.173333 4.266667 15.146667 11.52 13.013333 16.213333s-11.52 4.906667-21.333333 0a46.72 46.72 0 0 1-13.866667-11.306667 61.44 61.44 0 0 1 5.76 17.066667c0 10.24-2.56 18.773333-7.68 19.2s-10.026667-7.466667-10.88-17.706667a44.586667 44.586667 0 0 1 1.92-16 50.133333 50.133333 0 0 1-10.88 11.946667c-8.533333 5.76-17.706667 7.253333-21.333333 2.986667s1.493333-12.373333 10.026666-18.346667a50.133333 50.133333 0 0 1 16.64-6.4 54.826667 54.826667 0 0 1-17.493333-3.413333c-9.386667-4.48-15.146667-11.733333-13.013333-16.426667s11.52-4.906667 21.333333 0a45.226667 45.226667 0 0 1 13.013333 9.6 50.773333 50.773333 0 0 1-4.906666-15.36c0-10.24 2.56-18.986667 7.68-19.413333s10.026667 7.466667 11.093333 17.706666a55.253333 55.253333 0 0 1-2.773333 17.706667 50.56 50.56 0 0 1 11.306666-13.226667z m-13.226666 16.64a5.546667 5.546667 0 0 1-2.986667 2.133334 4.48 4.48 0 0 1-2.986667-1.493334 4.693333 4.693333 0 0 1 0 3.413334 3.84 3.84 0 0 1-3.413333 1.92 5.333333 5.333333 0 0 1 3.626667 1.493333 4.48 4.48 0 0 1 0 3.413333s2.133333-1.92 3.413333-1.92 2.346667 0 3.413333 1.92a4.48 4.48 0 0 1 0-3.84 4.693333 4.693333 0 0 1 2.773334-2.133333 3.626667 3.626667 0 0 1-2.986667-1.493333 4.053333 4.053333 0 0 1-0.853333-3.413334z" fill="#88B5FF" /><path d="M313.173333 558.506667c16.213333-11.093333 33.92-13.44 39.466667-5.12s-3.2 23.68-19.626667 34.56a90.026667 90.026667 0 0 1-28.8 11.52 92.586667 92.586667 0 0 1 30.08 7.466666c17.706667 8.533333 28.586667 22.826667 24.32 31.573334s-21.333333 9.173333-39.893333 0a99.413333 99.413333 0 0 1-26.24-21.333334 100.266667 100.266667 0 0 1 10.453333 32.426667c1.493333 19.626667-5.333333 36.266667-15.146666 36.906667s-18.986667-14.72-21.333334-34.346667a93.013333 93.013333 0 0 1 4.266667-30.72 94.08 94.08 0 0 1-21.333333 22.4c-16.426667 10.88-34.133333 13.226667-39.68 5.12s3.413333-23.68 19.626666-34.773333a106.666667 106.666667 0 0 1 32.213334-11.733334 106.666667 106.666667 0 0 1-33.493334-7.04c-17.706667-8.746667-28.586667-22.826667-24.32-31.786666s21.333333-8.96 39.893334 0a90.88 90.88 0 0 1 24.533333 19.2 87.68 87.68 0 0 1-8.746667-29.653334c-1.28-19.84 5.546667-36.266667 15.36-36.906666s18.773333 14.72 21.333334 34.346666a102.826667 102.826667 0 0 1-5.973334 33.706667 102.186667 102.186667 0 0 1 23.04-25.813333z m-26.026666 31.36a7.893333 7.893333 0 0 1-5.333334 4.053333 9.173333 9.173333 0 0 1-5.973333-2.773333 7.68 7.68 0 0 1 0 6.4 9.173333 9.173333 0 0 1-6.613333 3.84 9.386667 9.386667 0 0 1 7.04 2.773333 7.253333 7.253333 0 0 1 0 6.4 9.173333 9.173333 0 0 1 5.546666-3.413333 8.106667 8.106667 0 0 1 6.4 3.626666 8.106667 8.106667 0 0 1 0-7.466666 7.893333 7.893333 0 0 1 5.333334-3.626667 7.68 7.68 0 0 1-5.76-2.986667 8.106667 8.106667 0 0 1 0-7.466666z" fill="#92D0FF" /><path d="M285.866667 771.626667a66.773333 66.773333 0 0 1-3.413334 21.333333 68.693333 68.693333 0 0 1 13.866667-16c10.026667-6.826667 21.333333-8.533333 24.32-3.626667s-1.706667 14.72-11.733333 21.333334a53.333333 53.333333 0 0 1-17.493334 7.253333 61.013333 61.013333 0 0 1 18.56 4.266667c11.093333 5.12 17.92 13.866667 15.36 19.413333s-13.653333 5.76-24.533333 0a67.2 67.2 0 0 1-16.426667-13.226667 64 64 0 0 1 6.826667 19.84c0 12.16-2.986667 22.4-9.173333 22.826667s-11.733333-8.746667-12.8-21.333333a58.24 58.24 0 0 1 2.346666-18.986667 52.48 52.48 0 0 1-13.013333 14.08c-9.813333 7.04-21.333333 8.533333-24.32 3.626667s1.92-14.72 11.733333-21.333334a61.013333 61.013333 0 0 1 19.84-7.68 62.293333 62.293333 0 0 1-21.333333-4.053333c-10.88-5.12-17.706667-13.866667-15.146667-19.2s13.44-5.973333 24.533334 0a50.986667 50.986667 0 0 1 15.146666 11.52 58.88 58.88 0 0 1-5.546666-18.346667c0-12.16 2.986667-21.333333 8.96-22.826666s11.946667 8.746667 13.013333 21.333333z m-5.12 24.746666a4.266667 4.266667 0 0 1-2.986667 1.92 4.693333 4.693333 0 0 1-3.626667-1.706666 4.48 4.48 0 0 1 0 4.053333c0 1.28-1.92 1.92-3.84 2.346667 1.92 0 3.413333 0 4.053334 1.706666a5.12 5.12 0 0 1 0 4.053334 5.973333 5.973333 0 0 1 3.413333-2.346667 5.12 5.12 0 0 1 3.84 2.133333 5.546667 5.546667 0 0 1 0-4.693333 5.12 5.12 0 0 1 3.413333-2.346667 4.48 4.48 0 0 1-3.626666-1.706666 4.693333 4.693333 0 0 1 0-4.48z" fill="#88B5FF" /></svg>