<?xml version="1.0" standalone="no"?><!DOCTYPE svg PUBLIC "-//W3C//DTD SVG 1.1//EN" "http://www.w3.org/Graphics/SVG/1.1/DTD/svg11.dtd"><svg class="icon" width="48px" height="48.00px" viewBox="0 0 1024 1024" version="1.1" xmlns="http://www.w3.org/2000/svg"><path d="M335.127 400.29a269.964 269.964 0 1 0 539.928 0 269.964 269.964 0 1 0-539.928 0z" fill="#FFA448" /><path d="M605.09 130.327a268.902 268.902 0 0 1 175.384 64.717c59.336 96.982 28.3 236.507-77.005 324.86-102.381 85.904-240.211 94.282-326.078 25.488a268.753 268.753 0 0 1-42.264-145.101c0-149.094 120.87-269.964 269.964-269.964z" fill="#FFBF40" /><path d="M605.09 130.327l2.421 0.01c24.353 6.004 45.615 18.31 61.366 37.087 51.61 61.496 24.594 169.128-60.332 240.389-84.937 71.27-195.612 79.183-247.222 17.687-13.256-15.826-21.327-34.676-24.557-55.166 14.904-135 129.35-240.007 268.325-240.007z" fill="#FFD44E" /><path d="M435.993 208.819a69.222 83.065 50 1 0 88.991 106.055 69.222 83.065 50 1 0-88.99-106.055z" fill="#FFE174" /><path d="M383.953 885.015v-193.35l126.269 0.01a209.953 209.953 0 0 1-0.168-8.406c0-111.43 90.327-201.756 201.747-201.756 111.43 0 201.756 90.326 201.756 201.756 0 102.884-77.014 187.783-176.538 200.192v1.554H383.953z" fill="#EEE1D4" /><path d="M114.949 616.02a269.005 269.005 0 1 0 538.01 0 269.005 269.005 0 1 0-538.01 0z" fill="#FAEFE3" /></svg>