<?xml version="1.0" standalone="no"?><!DOCTYPE svg PUBLIC "-//W3C//DTD SVG 1.1//EN" "http://www.w3.org/Graphics/SVG/1.1/DTD/svg11.dtd"><svg class="icon" width="48px" height="48.00px" viewBox="0 0 1024 1024" version="1.1" xmlns="http://www.w3.org/2000/svg"><path d="M167.564 512a363.055 363.055 0 1 0 726.109 0 363.055 363.055 0 1 0-726.11 0z" fill="#FFA448" /><path d="M530.618 148.945c90.02 0 172.405 32.768 235.846 87.031 79.816 130.42 38.074 318.055-103.545 436.876-137.681 115.526-323.025 126.799-438.505 34.294A361.36 361.36 0 0 1 167.564 512c0-200.518 162.536-363.055 363.054-363.055z" fill="#FFBF40" /><path d="M530.618 148.945c1.099 0 2.197 0 3.296 0.02 32.74 8.089 61.31 24.63 82.487 49.868 69.4 82.711 33.076 227.449-81.138 323.286C421.041 617.956 272.19 628.596 202.8 545.894c-17.837-21.252-28.682-46.592-33.03-74.147 20.043-181.583 173.95-322.802 360.85-322.802z" fill="#FFD44E" /><path d="M303.217 254.506A93.09 111.71 50 1 0 422.892 397.13a93.09 111.71 50 1 0-119.675-142.624z" fill="#FFE174" /><path d="M176.873 549.236l80.616 46.546v93.09l-80.616 46.546-80.617-46.545v-93.091z" fill="#FFEC7F" /></svg>