<?xml version="1.0" encoding="utf-8"?>
<!-- Generator: Adobe Illustrator 25.0.0, SVG Export Plug-In . SVG Version: 6.00 Build 0)  -->
<svg version="1.1" id="图层_1" xmlns="http://www.w3.org/2000/svg" xmlns:xlink="http://www.w3.org/1999/xlink" x="0px" y="0px"
	 viewBox="0 0 48 48" style="enable-background:new 0 0 48 48;" xml:space="preserve">
<style type="text/css">
	.st0{fill:none;}
	.st1{fill:#FFFFFF;}
</style>
<g id="图层_2_1_">
	<g id="图层_1-2">
		<g id="nongchangguanli-c">
			<rect class="st0" width="48" height="48"/>
			<path class="st1" d="M42.4,4H5.6C4.7,4,4,4.7,4,5.6v36.8C4,43.3,4.7,44,5.6,44h36.8c0.9,0,1.6-0.7,1.6-1.6V5.6
				C44,4.7,43.3,4,42.4,4z M40.4,40.4H7.6V7.6h32.8V40.4z"/>
			<path class="st1" d="M22.6,16.7h2.8c0.2,0,0.4-0.2,0.4-0.4v-2.8c0-0.2-0.2-0.4-0.4-0.4h-2.8c-0.2,0-0.4,0.2-0.4,0.4v2.8
				C22.2,16.5,22.4,16.7,22.6,16.7C22.6,16.7,22.6,16.7,22.6,16.7z M13.5,25.8h2.8c0.2,0,0.4-0.2,0.4-0.4v-2.8
				c0-0.2-0.2-0.4-0.4-0.4h-2.8c-0.2,0-0.4,0.2-0.4,0.4v2.8C13.1,25.6,13.3,25.8,13.5,25.8z M31.7,25.8h2.8c0.2,0,0.4-0.2,0.4-0.4
				c0,0,0,0,0,0v-2.8c0-0.2-0.2-0.4-0.4-0.4l0,0h-2.8c-0.2,0-0.4,0.2-0.4,0.4v2.8C31.3,25.6,31.5,25.8,31.7,25.8z M22.6,25.8h2.8
				c0.2,0,0.4-0.2,0.4-0.4v-2.8c0-0.2-0.2-0.4-0.4-0.4h-2.8c-0.2,0-0.4,0.2-0.4,0.4v2.8C22.2,25.6,22.4,25.8,22.6,25.8z M22.6,34.9
				h2.8c0.2,0,0.4-0.2,0.4-0.4l0,0v-2.8c0-0.2-0.2-0.4-0.4-0.4h-2.8c-0.2,0-0.4,0.2-0.4,0.4v2.8C22.2,34.7,22.4,34.9,22.6,34.9
				C22.6,34.9,22.6,34.9,22.6,34.9z"/>
		</g>
	</g>
</g>
</svg>
