<svg xmlns="http://www.w3.org/2000/svg" viewBox="0 0 32 32"><defs><style>.cls-1{fill:none;}.cls-2{fill:#ffb300;}</style></defs><g id="图层_2" data-name="图层 2"><g id="田间设备"><rect class="cls-1" width="32" height="32"/><path class="cls-2" d="M6.34,6.34,7.4,7.4a6.52,6.52,0,0,1,9.2,0l1.06-1.06a8,8,0,0,0-11.32,0Z"/><path class="cls-2" d="M8.46,8.46,9.52,9.53a3.49,3.49,0,0,1,5,0l1.06-1.07a5,5,0,0,0-7.07,0Z"/><path class="cls-2" d="M10.59,10.59,12,12l1.41-1.41A2,2,0,0,0,10.59,10.59Z"/><circle class="cls-2" cx="23.12" cy="23.12" r="4.88"/><circle class="cls-2" cx="7.24" cy="24.76" r="3.24"/><path class="cls-2" d="M6.63,20.24a2.21,2.21,0,0,1,.64-.06,4.52,4.52,0,0,1,4.39,3.45.39.39,0,0,0,.36.28h4.62a.35.35,0,0,0,.36-.38,2.08,2.08,0,0,1,0-.43A6.15,6.15,0,0,1,23.1,17a6.08,6.08,0,0,1,1.82.28c.13.05.23-.05.23-.21l-.33-5.39a1.21,1.21,0,0,0-1.18-1.1H18.76a1.37,1.37,0,0,0-.89.59c-.1.13-.05.28.13.33l-1.28,4.76L10,17.66V15.79a.46.46,0,0,0,.38-.43.77.77,0,0,0-.76-.77H9.31a.78.78,0,0,0-.77.77.43.43,0,0,0,.39.43v2.07l-.92.2A1.82,1.82,0,0,0,6.5,19.42L6.37,20c-.07.15.08.3.26.28Zm12.23-8.79h3.91a.35.35,0,0,1,.36.36v4a.35.35,0,0,1-.36.36H17.61Z"/></g></g></svg>