<?xml version="1.0" standalone="no"?><!DOCTYPE svg PUBLIC "-//W3C//DTD SVG 1.1//EN" "http://www.w3.org/Graphics/SVG/1.1/DTD/svg11.dtd"><svg class="icon" width="48px" height="48.00px" viewBox="0 0 1024 1024" version="1.1" xmlns="http://www.w3.org/2000/svg"><path d="M810.667 490.667v42.666a21.333 21.333 0 0 1-21.334 21.334H554.667v234.666a21.333 21.333 0 0 1-21.334 21.334h-42.666a21.333 21.333 0 0 1-21.334-21.334V554.667H234.667a21.333 21.333 0 0 1-21.334-21.334v-42.666a21.333 21.333 0 0 1 21.334-21.334h234.666V234.667a21.333 21.333 0 0 1 21.334-21.334h42.666a21.333 21.333 0 0 1 21.334 21.334v234.666h234.666a21.333 21.333 0 0 1 21.334 21.334z" /></svg>