<svg xmlns="http://www.w3.org/2000/svg" viewBox="0 0 48 48"><defs/><g id="图层_2" data-name="图层 2"><g id="图层_1-2" data-name="图层 1"><g id="yushepeizhi"><path fill="none" d="M0 0h48v48H0z"/><path class="cls-2" d="M45.54 33.63h-3.09v-8h-16.5v-5.3h13.63a.92.92 0 00.92-.92V4.29a.92.92 0 00-.92-.92H8.42a.92.92 0 00-.92.92v15.13a.92.92 0 00.92.92h13.63v5.26H5.55v8H2.46a.46.46 0 00-.46.46v10.11a.46.46 0 00.46.46h10.08a.46.46 0 00.46-.46V34.08a.46.46 0 00-.46-.46H9.45V29.5h12.6v4.13H19a.46.46 0 00-.46.46v10.08a.46.46 0 00.46.46h10a.46.46 0 00.46-.46V34.08a.46.46 0 00-.46-.46h-3.05V29.5h12.6v4.13h-3.09a.46.46 0 00-.46.46v10.08a.46.46 0 00.46.46h10.08a.46.46 0 00.46-.46V34.08a.46.46 0 00-.46-.45zM9.33 40.8a.15.15 0 01-.15.15H5.82a.15.15 0 01-.15-.15v-3.36a.15.15 0 01.15-.15h3.36a.15.15 0 01.15.15zm16.5 0a.15.15 0 01-.15.15h-3.36a.15.15 0 01-.15-.15v-3.36a.15.15 0 01.15-.15h3.36a.15.15 0 01.15.15zM11.17 16.67V7h25.66v9.63zM42.33 40.8a.15.15 0 01-.15.15h-3.36a.15.15 0 01-.15-.15v-3.36a.15.15 0 01.15-.15h3.36a.15.15 0 01.15.15z"/><path class="cls-2" d="M15.29 11.85a2.29 2.29 0 102.29-2.29 2.29 2.29 0 00-2.29 2.29z"/></g></g></g></svg>